<svg viewBox="0 0 24 24" aria-hidden="true">
  <path fill="currentColor" d="M12 2a10 10 0 0 0-3.16 19.49c.5.09.68-.21.68-.48l-.01-1.7c-2.78.61-3.37-1.18-3.37-1.18-.46-1.15-1.11-1.46-1.11-1.46-.91-.61.07-.59.07-.59 1 .08 1.54 1.03 1.54 1.03.9 1.53 2.34 1.09 2.91.83.09-.65.35-1.09.64-1.34-2.22-.25-4.56-1.11-4.56-4.95 0-1.1.39-2 1.03-2.71-.1-.25-.45-1.29.1-2.69 0 0 .84-.27 2.75 1.03A9.6 9.6 0 0 1 12 6.84c.85 0 1.71.11 2.51.33 1.91-1.29 2.75-1.03 2.75-1.03.55 1.4.2 2.44.1 2.69.64.71 1.03 1.61 1.03 2.71 0 3.85-2.35 4.69-4.59 4.94.36.31.68.91.68 1.84l-.01 2.73c0 .27.18.58.69.48A10 10 0 0 0 12 2Z"></path>
</svg>
